<svg width="50" height="50" viewBox="0 0 50 50" fill="none" xmlns="http://www.w3.org/2000/svg">
<path d="M38.8673 7.99219C34.9266 4.83917 30.0294 3.12251 24.9825 3.125C19.0333 3.125 13.4767 5.41699 9.32237 9.5791C5.30772 13.6064 3.10753 18.9238 3.1251 24.5479C3.12524 28.6712 4.33577 32.7038 6.60655 36.1455L6.6251 36.1719C6.65245 36.2119 6.68077 36.252 6.70909 36.291C6.73741 36.3301 6.77257 36.3809 6.78038 36.3936L6.80186 36.4326C6.91221 36.6279 6.99717 36.8662 6.92198 37.1064L5.12315 43.6162C5.05119 43.8583 5.01178 44.1089 5.00596 44.3613C5.00466 45.0255 5.2668 45.6631 5.7349 46.1343C6.203 46.6055 6.83885 46.8719 7.50303 46.875C7.85401 46.8634 8.19989 46.7876 8.52354 46.6514L15.1144 44.2725L15.1974 44.2402C15.3767 44.165 15.5693 44.1268 15.7638 44.1279C15.9431 44.1284 16.1208 44.1615 16.2882 44.2256C16.4464 44.2871 17.8829 44.8369 19.3985 45.2607C20.6583 45.6123 23.2794 46.1397 25.3331 46.1397C31.1583 46.1397 36.5978 43.8838 40.6485 39.7861C44.6642 35.7197 46.8751 30.3145 46.8751 24.5596C46.8756 23.0823 46.7191 21.6092 46.4083 20.165C45.3985 15.417 42.7208 11.0928 38.8673 7.99219ZM15.6251 28.125C15.007 28.125 14.4029 27.9417 13.8889 27.5983C13.375 27.255 12.9745 26.7669 12.738 26.1959C12.5015 25.6249 12.4396 24.9965 12.5602 24.3903C12.6807 23.7842 12.9784 23.2273 13.4154 22.7903C13.8524 22.3533 14.4093 22.0556 15.0154 21.935C15.6216 21.8145 16.25 21.8764 16.821 22.1129C17.392 22.3494 17.8801 22.7499 18.2234 23.2638C18.5668 23.7777 18.7501 24.3819 18.7501 25C18.7501 25.8288 18.4209 26.6237 17.8348 27.2097C17.2488 27.7958 16.4539 28.125 15.6251 28.125ZM25.0001 28.125C24.382 28.125 23.7779 27.9417 23.2639 27.5983C22.75 27.255 22.3495 26.7669 22.113 26.1959C21.8765 25.6249 21.8146 24.9965 21.9352 24.3903C22.0557 23.7842 22.3534 23.2273 22.7904 22.7903C23.2274 22.3533 23.7843 22.0556 24.3904 21.935C24.9966 21.8145 25.625 21.8764 26.196 22.1129C26.767 22.3494 27.2551 22.7499 27.5984 23.2638C27.9418 23.7777 28.1251 24.3819 28.1251 25C28.1251 25.8288 27.7959 26.6237 27.2098 27.2097C26.6238 27.7958 25.8289 28.125 25.0001 28.125V28.125ZM34.3751 28.125C33.757 28.125 33.1528 27.9417 32.6389 27.5983C32.125 27.255 31.7245 26.7669 31.488 26.1959C31.2515 25.6249 31.1896 24.9965 31.3102 24.3903C31.4307 23.7842 31.7284 23.2273 32.1654 22.7903C32.6024 22.3533 33.1593 22.0556 33.7654 21.935C34.3716 21.8145 35 21.8764 35.571 22.1129C36.142 22.3494 36.6301 22.7499 36.9734 23.2638C37.3168 23.7777 37.5001 24.3819 37.5001 25C37.5001 25.8288 37.1709 26.6237 36.5848 27.2097C35.9988 27.7958 35.2039 28.125 34.3751 28.125Z" fill="#E94057"/>
</svg>
