<svg width="50" height="50" viewBox="0 0 50 50" fill="none" xmlns="http://www.w3.org/2000/svg">
<path d="M25 6.25C14.6484 6.25 6.25 14.6484 6.25 25C6.25 35.3516 14.6484 43.75 25 43.75C35.3516 43.75 43.75 35.3516 43.75 25C43.75 14.6484 35.3516 6.25 25 6.25ZM24.4141 35.9375C24.0278 35.9375 23.6502 35.823 23.329 35.6083C23.0078 35.3937 22.7574 35.0887 22.6096 34.7318C22.4618 34.3749 22.4231 33.9822 22.4985 33.6033C22.5738 33.2245 22.7598 32.8765 23.033 32.6033C23.3061 32.3302 23.6542 32.1441 24.033 32.0688C24.4119 31.9934 24.8046 32.0321 25.1615 32.1799C25.5184 32.3277 25.8234 32.5781 26.038 32.8993C26.2526 33.2205 26.3672 33.5981 26.3672 33.9844C26.3672 34.5024 26.1614 34.9992 25.7951 35.3654C25.4288 35.7317 24.9321 35.9375 24.4141 35.9375V35.9375ZM27.6797 25.9766C26.0967 27.0391 25.8789 28.0127 25.8789 28.9062C25.8789 29.2689 25.7349 29.6166 25.4785 29.873C25.2221 30.1294 24.8743 30.2734 24.5117 30.2734C24.1491 30.2734 23.8014 30.1294 23.545 29.873C23.2886 29.6166 23.1445 29.2689 23.1445 28.9062C23.1445 26.7666 24.1289 25.0654 26.1543 23.7051C28.0371 22.4414 29.1016 21.6406 29.1016 19.8799C29.1016 18.6826 28.418 17.7734 27.0029 17.1006C26.6699 16.9424 25.9287 16.7881 25.0166 16.7988C23.8721 16.8135 22.9834 17.0869 22.2988 17.6377C21.0078 18.6768 20.8984 19.8076 20.8984 19.8242C20.8898 20.0038 20.8458 20.1798 20.7691 20.3424C20.6924 20.505 20.5845 20.6508 20.4514 20.7717C20.3183 20.8925 20.1627 20.9859 19.9935 21.0466C19.8244 21.1074 19.6449 21.1341 19.4653 21.1255C19.2858 21.1168 19.1097 21.0729 18.9471 20.9962C18.7846 20.9195 18.6387 20.8115 18.5179 20.6784C18.3971 20.5454 18.3036 20.3898 18.2429 20.2206C18.1822 20.0514 18.1554 19.8719 18.1641 19.6924C18.1748 19.4551 18.3398 17.3174 20.583 15.5127C21.7461 14.5771 23.2256 14.0908 24.9775 14.0693C26.2178 14.0547 27.3828 14.2646 28.1729 14.6377C30.5371 15.7559 31.8359 17.6201 31.8359 19.8799C31.8359 23.1836 29.6279 24.667 27.6797 25.9766Z" fill="#E94057"/>
</svg>
