<svg width="50" height="50" viewBox="0 0 50 50" fill="none" xmlns="http://www.w3.org/2000/svg">
<path d="M25 4.6875C13.7998 4.6875 4.6875 13.7998 4.6875 25C4.6875 36.2002 13.7998 45.3125 25 45.3125C36.2002 45.3125 45.3125 36.2002 45.3125 25C45.3125 13.7998 36.2002 4.6875 25 4.6875ZM32.2939 29.377C31.3779 30.4941 29.7158 32.2803 25.8779 34.8857C25.6191 35.063 25.3127 35.1578 24.999 35.1578C24.6853 35.1578 24.379 35.063 24.1201 34.8857C20.2822 32.2803 18.6201 30.4912 17.7041 29.377C15.751 26.9971 14.8154 24.5527 14.8428 21.9063C14.873 18.873 17.3057 16.4053 20.2656 16.4053C22.2578 16.4053 23.6836 17.4434 24.5723 18.3984C24.627 18.4564 24.693 18.5025 24.7662 18.534C24.8395 18.5656 24.9183 18.5818 24.998 18.5818C25.0778 18.5818 25.1566 18.5656 25.2298 18.534C25.3031 18.5025 25.3691 18.4564 25.4238 18.3984C26.3135 17.4434 27.7383 16.4053 29.7305 16.4053C32.6904 16.4053 35.123 18.873 35.1533 21.9063C35.1826 24.5527 34.2461 26.9971 32.2939 29.377V29.377Z" fill="#E94057"/>
</svg>
