<svg width="50" height="50" viewBox="0 0 50 50" fill="none" xmlns="http://www.w3.org/2000/svg">
<path d="M26.0742 46.2891L25.9961 46.2764C26.007 46.2849 26.0199 46.2905 26.0335 46.2927C26.0472 46.2949 26.0611 46.2937 26.0742 46.2891V46.2891ZM43.8379 18.3379C43.8156 18.2201 43.7546 18.1131 43.6645 18.0339C43.5745 17.9547 43.4606 17.9078 43.3409 17.9008C43.2212 17.8937 43.1025 17.9268 43.0038 17.9949C42.905 18.0629 42.8319 18.162 42.7959 18.2764C42.7614 18.385 42.6934 18.4799 42.6016 18.5475C42.5099 18.615 42.3991 18.6517 42.2851 18.6524H40.7744C40.6766 18.6525 40.5807 18.6258 40.497 18.5752L38.3115 17.2647C38.2278 17.2141 38.1319 17.1874 38.0342 17.1875H34.5381C34.4316 17.1874 34.3276 17.219 34.2392 17.2784L29.9277 20.1524C29.8532 20.202 29.7922 20.2694 29.7503 20.3485C29.7083 20.4277 29.6867 20.516 29.6875 20.6055V24.6817C29.6874 24.7794 29.7138 24.8753 29.7641 24.959C29.8143 25.0428 29.8864 25.1113 29.9726 25.1573L35.626 28.1748C35.7109 28.2205 35.7821 28.2881 35.8322 28.3705C35.8824 28.4529 35.9096 28.5472 35.9111 28.6436L35.9375 30.9375C35.939 31.0325 35.9655 31.1254 36.0144 31.2068C36.0632 31.2883 36.1327 31.3554 36.2158 31.4014L38.4873 32.6582C38.5714 32.705 38.6416 32.7733 38.6905 32.8563C38.7395 32.9392 38.7654 33.0337 38.7656 33.1299V37.876C38.7656 37.9797 38.7956 38.0813 38.8518 38.1684C38.9081 38.2555 38.9883 38.3246 39.0828 38.3672C39.1774 38.4099 39.2822 38.4244 39.3848 38.409C39.4874 38.3936 39.5833 38.3489 39.6611 38.2803C40.5771 37.4737 41.8906 36.2959 42.0654 36.0264C42.3545 35.5791 42.6256 35.1211 42.8789 34.6524C43.4033 33.6811 43.8475 32.6687 44.207 31.625C45.4453 28.0401 44.4668 21.5957 43.8379 18.3379V18.3379ZM27.9687 29.5704L21.9795 25.0782C21.9119 25.0275 21.8296 25 21.7451 25H18.9033C18.8547 25.0001 18.8065 24.9905 18.7616 24.9719C18.7167 24.9533 18.6759 24.9261 18.6416 24.8916L17.3017 23.5518C17.2654 23.5155 17.2223 23.4868 17.1749 23.4672C17.1275 23.4476 17.0767 23.4375 17.0254 23.4375H11.831C11.7578 23.4375 11.6863 23.4158 11.6254 23.3752C11.5645 23.3345 11.5171 23.2767 11.4891 23.2091C11.4611 23.1414 11.4537 23.067 11.468 22.9952C11.4823 22.9234 11.5175 22.8575 11.5693 22.8057L12.3916 21.9834C12.4259 21.949 12.4667 21.9217 12.5116 21.9031C12.5565 21.8845 12.6047 21.875 12.6533 21.875H15.8144C15.9847 21.875 16.1503 21.8194 16.286 21.7166C16.4218 21.6139 16.5202 21.4696 16.5664 21.3057L17.2392 18.9131C17.2536 18.8617 17.2783 18.8138 17.3119 18.7723C17.3455 18.7308 17.3872 18.6966 17.4345 18.6719L20.1172 17.2911C20.1775 17.2599 20.2281 17.2127 20.2635 17.1546C20.2988 17.0966 20.3174 17.0299 20.3174 16.962V15.7413C20.3175 15.6655 20.3406 15.5916 20.3838 15.5293L21.8095 13.4766C21.8523 13.4149 21.913 13.3679 21.9834 13.3418L23.9785 12.5928C24.0491 12.5664 24.1099 12.519 24.1528 12.457C24.1958 12.3951 24.2187 12.3215 24.2187 12.2461V11.1329C24.2187 11.0718 24.2037 11.0117 24.1749 10.9579C24.1461 10.9041 24.1045 10.8582 24.0537 10.8243L22.0537 9.49418C21.9987 9.45803 21.9352 9.43701 21.8696 9.43323C21.8039 9.42946 21.7384 9.44307 21.6797 9.4727L18.957 10.834C18.8947 10.8648 18.825 10.8773 18.7559 10.8703C18.6868 10.8632 18.6211 10.8367 18.5664 10.794L17.2754 9.77348C17.2313 9.73805 17.1959 9.69302 17.1719 9.64183C17.1479 9.59064 17.136 9.53465 17.1369 9.47812C17.1378 9.42159 17.1517 9.36603 17.1774 9.31567C17.2031 9.26531 17.2399 9.22148 17.2851 9.18754L18.334 8.41508C18.3814 8.38025 18.4199 8.33458 18.4461 8.28186C18.4724 8.22914 18.4856 8.17091 18.4847 8.11203C18.4839 8.05316 18.4689 7.99534 18.4412 7.94341C18.4134 7.89148 18.3737 7.84694 18.3252 7.81352L16.6914 6.67387C16.6348 6.63405 16.5682 6.61092 16.4992 6.60712C16.4301 6.60333 16.3613 6.61901 16.3008 6.65239C15.7099 6.97563 13.9765 7.93266 13.3613 8.36332C10.5147 10.3595 8.22387 13.0483 6.70506 16.1758C6.52732 16.543 6.3076 16.917 6.28611 17.3204C6.26463 17.7237 5.94822 18.6241 5.81638 18.9883C5.7986 19.0376 5.79149 19.09 5.79553 19.1422C5.79958 19.1944 5.81467 19.2451 5.83982 19.2911L9.32517 25.6954C9.35654 25.7536 9.40312 25.8022 9.45994 25.836L13.1269 28.0372C13.1745 28.0655 13.2151 28.1042 13.2457 28.1503C13.2763 28.1965 13.2961 28.2489 13.3037 28.3038L14.0381 33.6299C14.0452 33.681 14.0629 33.73 14.09 33.7738C14.117 33.8177 14.1529 33.8555 14.1953 33.8848L17.0566 35.8516C17.1395 35.9086 17.1972 35.9953 17.2178 36.0938L18.7353 43.3008C18.7438 43.3431 18.7601 43.3835 18.7832 43.42C18.9258 43.6504 19.4941 44.4942 20.1797 44.6192C20.1162 44.6368 20.0595 44.6768 19.9961 44.6954C20.1607 44.7243 20.3237 44.7621 20.4844 44.8086C20.6797 44.8614 20.875 44.9063 21.0703 44.9483C21.376 45.0088 21.4062 45.0557 21.5527 44.7842C21.748 44.4209 21.9717 44.2959 22.1387 44.251C22.2076 44.2351 22.2706 44.2001 22.3205 44.15C22.3705 44.0999 22.4052 44.0368 22.4209 43.9678L23.4043 39.4092C23.425 39.3137 23.4807 39.2293 23.5605 39.1729L27.9551 36.0577C28.0061 36.0215 28.0478 35.9737 28.0765 35.9181C28.1052 35.8625 28.1202 35.8009 28.1201 35.7383V29.8829C28.1207 29.8226 28.1073 29.7631 28.081 29.7089C28.0548 29.6547 28.0163 29.6072 27.9687 29.5704V29.5704Z" fill="#E94057"/>
<path d="M25.5859 4.6875C25.5859 4.6875 25.2295 4.70801 25.1572 4.70996C24.6279 4.72559 24.0999 4.76204 23.5732 4.81934C21.6532 5.02763 19.7729 5.50939 17.9893 6.25C18.2266 6.41406 17.8184 6.56445 17.8184 6.56445L18.457 7.8125H21.875L24.2187 8.98438L26.2695 7.8125L25.5859 4.6875ZM34.5928 11.7246L36.166 10.3574C36.2153 10.3147 36.253 10.2603 36.2759 10.1992C36.2987 10.1381 36.3059 10.0723 36.2967 10.0077C36.2876 9.94318 36.2625 9.88193 36.2236 9.82957C36.1847 9.77722 36.1334 9.73543 36.0742 9.70801L34.2373 8.85547C34.144 8.81194 34.0373 8.80701 33.9403 8.84176C33.8434 8.87651 33.7641 8.94812 33.7197 9.04102L32.9629 10.624C32.9217 10.7106 32.9138 10.8092 32.9406 10.9013C32.9674 10.9933 33.0271 11.0722 33.1084 11.123L34.1299 11.7617C34.2009 11.8059 34.2841 11.8261 34.3674 11.8194C34.4508 11.8127 34.5297 11.7795 34.5928 11.7246ZM41.957 13.7373L41.3877 12.8584C41.3789 12.8447 41.3711 12.8311 41.3633 12.8164C41.2607 12.6064 40.4121 10.8926 39.7031 10.2275C39.1709 9.72461 39.0195 9.86914 38.9775 9.98047C38.9535 10.042 38.9134 10.096 38.8613 10.1367L36.0449 12.4131C35.9755 12.4692 35.889 12.4999 35.7998 12.5H34.3418C34.2905 12.5 34.2397 12.51 34.1922 12.5296C34.1448 12.5492 34.1017 12.578 34.0654 12.6143L32.8936 13.7861C32.8572 13.8224 32.8284 13.8655 32.8088 13.9129C32.7891 13.9603 32.779 14.0112 32.779 14.0625C32.779 14.1138 32.7891 14.1647 32.8088 14.2121C32.8284 14.2595 32.8572 14.3026 32.8936 14.3389L34.0654 15.5107C34.1017 15.547 34.1448 15.5758 34.1922 15.5954C34.2397 15.615 34.2905 15.625 34.3418 15.625H41.6826C41.7353 15.625 41.7875 15.6144 41.836 15.5938C41.8845 15.5731 41.9284 15.5428 41.9649 15.5048C42.0014 15.4667 42.0298 15.4217 42.0484 15.3724C42.067 15.323 42.0755 15.2705 42.0732 15.2178L42.0195 13.9336C42.0166 13.8637 41.9951 13.796 41.957 13.7373V13.7373Z" fill="#E94057"/>
<path d="M25 7.03125C29.1572 7.0309 33.1859 8.47202 36.3996 11.1091C39.6134 13.7461 41.8134 17.4159 42.6247 21.4931C43.436 25.5704 42.8086 29.8028 40.8491 33.4692C38.8897 37.1357 35.7196 40.0093 31.879 41.6005C28.0384 43.1916 23.7649 43.4019 19.7866 42.1954C15.8083 40.9889 12.3715 38.4403 10.0617 34.9839C7.75184 31.5274 6.71194 27.3771 7.11916 23.2399C7.52638 19.1027 9.35552 15.2347 12.2949 12.2949C13.9594 10.621 15.9393 9.29383 18.1202 8.39032C20.301 7.4868 22.6394 7.02486 25 7.03125M25 3.125C12.9199 3.125 3.125 12.9199 3.125 25C3.125 37.0801 12.9199 46.875 25 46.875C37.0801 46.875 46.875 37.0801 46.875 25C46.875 12.9199 37.0801 3.125 25 3.125Z" fill="#E94057"/>
</svg>
