<svg width="50" height="50" viewBox="0 0 50 50" fill="none" xmlns="http://www.w3.org/2000/svg">
<path d="M25.543 9.89066C25.3976 9.75158 25.2041 9.67395 25.0029 9.67395C24.8017 9.67395 24.6083 9.75158 24.4629 9.89066L6.48438 27.0655C6.40802 27.1385 6.34728 27.2263 6.30582 27.3235C6.26436 27.4206 6.24304 27.5252 6.24316 27.6309L6.24023 43.75C6.24023 44.5788 6.56947 45.3737 7.15553 45.9597C7.74158 46.5458 8.53643 46.875 9.36523 46.875H18.75C19.1644 46.875 19.5618 46.7104 19.8549 46.4174C20.1479 46.1244 20.3125 45.7269 20.3125 45.3125V32.0313C20.3125 31.8241 20.3948 31.6254 20.5413 31.4789C20.6878 31.3323 20.8866 31.25 21.0938 31.25H28.9063C29.1135 31.25 29.3122 31.3323 29.4587 31.4789C29.6052 31.6254 29.6875 31.8241 29.6875 32.0313V45.3125C29.6875 45.7269 29.8521 46.1244 30.1451 46.4174C30.4382 46.7104 30.8356 46.875 31.25 46.875H40.6309C41.4597 46.875 42.2545 46.5458 42.8406 45.9597C43.4266 45.3737 43.7559 44.5788 43.7559 43.75V27.6309C43.756 27.5252 43.7347 27.4206 43.6932 27.3235C43.6517 27.2263 43.591 27.1385 43.5146 27.0655L25.543 9.89066Z" fill="#E94057"/>
<path d="M47.9405 23.8428L40.6358 16.8545V6.25C40.6358 5.8356 40.4712 5.43817 40.1781 5.14515C39.8851 4.85212 39.4877 4.6875 39.0733 4.6875H34.3858C33.9714 4.6875 33.5739 4.85212 33.2809 5.14515C32.9879 5.43817 32.8233 5.8356 32.8233 6.25V9.375L27.167 3.9668C26.6377 3.43164 25.8506 3.125 25 3.125C24.1524 3.125 23.3672 3.43164 22.8379 3.96777L2.06644 23.8408C1.45902 24.4268 1.38285 25.3906 1.93558 26.0254C2.07438 26.1856 2.24433 26.3159 2.43509 26.4084C2.62585 26.5008 2.83343 26.5535 3.04519 26.5632C3.25696 26.5729 3.46847 26.5394 3.66688 26.4647C3.86528 26.39 4.04641 26.2758 4.19926 26.1289L24.4629 6.76562C24.6083 6.62654 24.8018 6.54892 25.003 6.54892C25.2042 6.54892 25.3976 6.62654 25.543 6.76562L45.8086 26.1289C46.1072 26.4152 46.507 26.5714 46.9205 26.5634C47.3341 26.5553 47.7275 26.3836 48.0147 26.0859C48.6143 25.4648 48.5645 24.4395 47.9405 23.8428Z" fill="#E94057"/>
</svg>
