<svg width="50" height="50" viewBox="0 0 50 50" fill="none" xmlns="http://www.w3.org/2000/svg">
<path d="M25 4.6875C13.7998 4.6875 4.6875 13.7998 4.6875 25C4.6875 36.2002 13.7998 45.3125 25 45.3125C36.2002 45.3125 45.3125 36.2002 45.3125 25C45.3125 13.7998 36.2002 4.6875 25 4.6875ZM25.1953 14.0625C26.586 14.0625 27.9454 14.4749 29.1017 15.2475C30.2579 16.0201 31.1592 17.1182 31.6913 18.403C32.2235 19.6878 32.3628 21.1016 32.0915 22.4655C31.8202 23.8294 31.1505 25.0823 30.1672 26.0656C29.1838 27.0489 27.931 27.7186 26.567 27.9899C25.2031 28.2612 23.7894 28.122 22.5046 27.5898C21.2198 27.0576 20.1216 26.1564 19.349 25.0001C18.5764 23.8438 18.1641 22.4844 18.1641 21.0938C18.1641 19.2289 18.9049 17.4405 20.2235 16.1219C21.5421 14.8033 23.3305 14.0625 25.1953 14.0625V14.0625ZM25 42.1875C22.6294 42.1885 20.2843 41.6978 18.1129 40.7464C15.9415 39.795 13.9911 38.4036 12.3848 36.6602C13.248 32.1895 21.002 31.25 25 31.25C28.998 31.25 36.752 32.1895 37.6152 36.6592C36.0091 38.403 34.0587 39.7946 31.8873 40.7462C29.7159 41.6978 27.3707 42.1885 25 42.1875V42.1875Z" fill="#E94057"/>
</svg>
