<svg width="50" height="50" viewBox="0 0 50 50" fill="none" xmlns="http://www.w3.org/2000/svg">
<path d="M25 4.6875C13.7998 4.6875 4.6875 13.8008 4.6875 25C4.6875 36.2168 13.7832 45.3125 25 45.3125C36.2002 45.3125 45.3125 36.2002 45.3125 25C45.3125 13.7822 36.2178 4.6875 25 4.6875ZM25 35.2539C22.5654 35.2539 20.2305 34.2868 18.509 32.5652C16.7875 30.8437 15.8203 28.5088 15.8203 26.0742C15.8203 23.6396 16.7875 21.3047 18.509 19.5832C20.2305 17.8617 22.5654 16.8945 25 16.8945H25.4111L24.0332 15.5176C23.7768 15.2612 23.6327 14.9134 23.6327 14.5508C23.6327 14.1882 23.7768 13.8404 24.0332 13.584C24.2896 13.3276 24.6374 13.1835 25 13.1835C25.3626 13.1835 25.7104 13.3276 25.9668 13.584L29.873 17.4902C30 17.6172 30.1007 17.7679 30.1695 17.9338C30.2382 18.0997 30.2735 18.2775 30.2735 18.457C30.2735 18.6366 30.2382 18.8144 30.1695 18.9803C30.1007 19.1461 30 19.2969 29.873 19.4238L25.9668 23.3301C25.7104 23.5865 25.3626 23.7305 25 23.7305C24.6374 23.7305 24.2896 23.5865 24.0332 23.3301C23.7768 23.0737 23.6327 22.7259 23.6327 22.3633C23.6327 22.0007 23.7768 21.6529 24.0332 21.3965L25.791 19.6387C25.5586 19.6289 25.293 19.6289 25 19.6289C23.7252 19.6289 22.4791 20.0069 21.4192 20.7151C20.3593 21.4234 19.5331 22.43 19.0453 23.6077C18.5575 24.7854 18.4298 26.0814 18.6785 27.3316C18.9272 28.5819 19.5411 29.7303 20.4425 30.6317C21.3439 31.5331 22.4923 32.147 23.7426 32.3957C24.9929 32.6444 26.2888 32.5167 27.4665 32.0289C28.6442 31.5411 29.6509 30.715 30.3591 29.655C31.0673 28.5951 31.4453 27.349 31.4453 26.0742C31.4453 25.7116 31.5894 25.3639 31.8458 25.1075C32.1021 24.8511 32.4499 24.707 32.8125 24.707C33.1751 24.707 33.5229 24.8511 33.7792 25.1075C34.0356 25.3639 34.1797 25.7116 34.1797 26.0742C34.1768 28.508 33.2088 30.8412 31.4879 32.5621C29.767 34.283 27.4337 35.2511 25 35.2539V35.2539Z" fill="#F27121"/>
</svg>
