<svg width="50" height="50" viewBox="0 0 50 50" fill="none" xmlns="http://www.w3.org/2000/svg">
<path d="M46.542 22.1728L46.5264 22.166L4.81934 4.86713C4.46854 4.7203 4.08681 4.66271 3.70831 4.69953C3.3298 4.73634 2.96633 4.86639 2.65039 5.07806C2.3166 5.29678 2.04241 5.59506 1.85251 5.94605C1.66261 6.29704 1.56295 6.68974 1.5625 7.08881V18.1523C1.56269 18.6978 1.75318 19.2262 2.10116 19.6464C2.44913 20.0666 2.93278 20.3522 3.46875 20.454L26.2158 24.6601C26.3052 24.677 26.3859 24.7247 26.4439 24.7947C26.5019 24.8648 26.5337 24.9529 26.5337 25.0439C26.5337 25.1349 26.5019 25.223 26.4439 25.2931C26.3859 25.3631 26.3052 25.4107 26.2158 25.4277L3.46973 29.6337C2.93391 29.7353 2.45029 30.0205 2.10216 30.4403C1.75403 30.8601 1.56318 31.3882 1.5625 31.9335V42.999C1.56224 43.38 1.6566 43.7552 1.8371 44.0908C2.0176 44.4264 2.2786 44.712 2.59668 44.9218C2.9793 45.176 3.42833 45.3119 3.8877 45.3124C4.20705 45.3122 4.52313 45.2481 4.81738 45.124L46.5234 27.9238L46.542 27.915C47.1034 27.6737 47.5817 27.2732 47.9179 26.7629C48.254 26.2526 48.4331 25.6549 48.4331 25.0439C48.4331 24.4328 48.254 23.8352 47.9179 23.3249C47.5817 22.8146 47.1034 22.4141 46.542 22.1728V22.1728Z" fill="#E94057"/>
</svg>
